<svg id="Layer_1" data-name="Layer 1" xmlns="http://www.w3.org/2000/svg" viewBox="0 0 206 60"><defs><style>.cls-1{fill:#e52024;stroke:#000;stroke-miterlimit:10;}.cls-2{fill:#fefaf6;}</style></defs><title>semere_knap</title><rect class="cls-1" x="1" y="1.5" width="204" height="58"/><path class="cls-2" d="M50.25,34.13a6.06,6.06,0,0,0,.83,3c.93,1.43,2.58,2.14,4.93,2.14a8.53,8.53,0,0,0,2.88-.47,3.31,3.31,0,0,0,2.51-3.25A2.86,2.86,0,0,0,60.33,33,10.46,10.46,0,0,0,57,31.74l-2.83-.66a12.6,12.6,0,0,1-3.92-1.42,4.55,4.55,0,0,1-2-4,6.29,6.29,0,0,1,2-4.76A7.71,7.71,0,0,1,55.71,19a9.43,9.43,0,0,1,5.6,1.63q2.3,1.63,2.3,5.22H60.87a5.54,5.54,0,0,0-.9-2.65q-1.28-1.68-4.34-1.68a4.88,4.88,0,0,0-3.55,1.08A3.49,3.49,0,0,0,51,25.13a2.48,2.48,0,0,0,1.27,2.32,18.84,18.84,0,0,0,3.79,1.17l2.93.69a8.64,8.64,0,0,1,3.26,1.36,5.16,5.16,0,0,1,2,4.38,5.5,5.5,0,0,1-2.54,5.11,11.08,11.08,0,0,1-5.89,1.54,8.67,8.67,0,0,1-6.13-2.05,7,7,0,0,1-2.17-5.52Z"/><path class="cls-2" d="M77.69,25.81a6.06,6.06,0,0,1,2.38,2,7.2,7.2,0,0,1,1.05,2.77,18.78,18.78,0,0,1,.23,3.46H69.94a6.8,6.8,0,0,0,1.12,3.84,3.72,3.72,0,0,0,3.24,1.45A4.19,4.19,0,0,0,77.57,38a4.79,4.79,0,0,0,1-1.84h2.59a5.57,5.57,0,0,1-.68,1.92,7.16,7.16,0,0,1-1.29,1.74,6.09,6.09,0,0,1-3,1.58,8.75,8.75,0,0,1-2.14.24,6.56,6.56,0,0,1-4.94-2.13,8.35,8.35,0,0,1-2-6,9,9,0,0,1,2-6.14A6.71,6.71,0,0,1,74.48,25,7.07,7.07,0,0,1,77.69,25.81Zm1,6.16a6.94,6.94,0,0,0-.74-2.74,3.79,3.79,0,0,0-3.59-1.9,4,4,0,0,0-3,1.31A5,5,0,0,0,70,32Z"/><path class="cls-2" d="M93,25.38h2.61v2.23a8.89,8.89,0,0,1,1.7-1.69,5.16,5.16,0,0,1,3-.89,4.12,4.12,0,0,1,4.19,2.48,5.61,5.61,0,0,1,2.06-1.87,5.71,5.71,0,0,1,2.67-.61c2.11,0,3.54.76,4.31,2.28a7.54,7.54,0,0,1,.61,3.32V41.07h-2.74V30.17a2.54,2.54,0,0,0-.78-2.15,3.1,3.1,0,0,0-1.91-.59,3.82,3.82,0,0,0-2.68,1,4.6,4.6,0,0,0-1.12,3.47v9.13h-2.68V30.83a5.26,5.26,0,0,0-.38-2.33,2.33,2.33,0,0,0-2.24-1.1,3.88,3.88,0,0,0-2.72,1.16c-.81.77-1.22,2.17-1.22,4.19v8.32H93Z"/><path class="cls-2" d="M127.7,25.81a6.06,6.06,0,0,1,2.38,2,7,7,0,0,1,1,2.77,17.73,17.73,0,0,1,.24,3.46H120a6.8,6.8,0,0,0,1.12,3.84,3.72,3.72,0,0,0,3.24,1.45A4.19,4.19,0,0,0,127.58,38a4.79,4.79,0,0,0,1-1.84h2.59a5.57,5.57,0,0,1-.68,1.92,7.16,7.16,0,0,1-1.29,1.74,6.09,6.09,0,0,1-2.95,1.58,8.81,8.81,0,0,1-2.14.24,6.56,6.56,0,0,1-4.94-2.13,8.35,8.35,0,0,1-2-6,9,9,0,0,1,2-6.14A6.71,6.71,0,0,1,124.49,25,7.07,7.07,0,0,1,127.7,25.81Zm1,6.16a7.11,7.11,0,0,0-.74-2.74,3.79,3.79,0,0,0-3.59-1.9,4,4,0,0,0-3,1.31A5,5,0,0,0,120,32Z"/><path class="cls-2" d="M134.77,25.38h2.51v2.71a5.69,5.69,0,0,1,1.51-1.92A3.89,3.89,0,0,1,141.55,25h.25l.6.06v2.79l-.43-.06-.43,0a3.77,3.77,0,0,0-3.06,1.28,4.46,4.46,0,0,0-1.07,3v9h-2.64Z"/><path class="cls-2" d="M154.38,25.81a6,6,0,0,1,2.37,2,7,7,0,0,1,1.05,2.77,17.92,17.92,0,0,1,.23,3.46H146.62a6.8,6.8,0,0,0,1.12,3.84A3.75,3.75,0,0,0,151,39.36,4.16,4.16,0,0,0,154.25,38a4.66,4.66,0,0,0,1-1.84h2.59a5.18,5.18,0,0,1-.68,1.92,6.68,6.68,0,0,1-1.29,1.74,6.05,6.05,0,0,1-3,1.58,8.7,8.7,0,0,1-2.14.24,6.54,6.54,0,0,1-4.93-2.13,8.35,8.35,0,0,1-2-6,9,9,0,0,1,2-6.14A6.72,6.72,0,0,1,151.16,25,7.11,7.11,0,0,1,154.38,25.81Zm.94,6.16a6.77,6.77,0,0,0-.74-2.74,3.77,3.77,0,0,0-3.58-1.9,4,4,0,0,0-3,1.31A5,5,0,0,0,146.68,32Z"/><path d="M51.25,33.13a6.06,6.06,0,0,0,.83,3c.93,1.43,2.58,2.14,4.93,2.14a8.53,8.53,0,0,0,2.88-.47,3.31,3.31,0,0,0,2.51-3.25A2.86,2.86,0,0,0,61.33,32,10.46,10.46,0,0,0,58,30.74l-2.83-.66a12.6,12.6,0,0,1-3.92-1.42,4.55,4.55,0,0,1-2-4,6.29,6.29,0,0,1,2-4.76A7.71,7.71,0,0,1,56.71,18a9.43,9.43,0,0,1,5.6,1.63q2.3,1.63,2.3,5.22H61.87a5.54,5.54,0,0,0-.9-2.65q-1.28-1.68-4.34-1.68a4.88,4.88,0,0,0-3.55,1.08A3.49,3.49,0,0,0,52,24.13a2.48,2.48,0,0,0,1.27,2.32,18.84,18.84,0,0,0,3.79,1.17l2.93.69a8.64,8.64,0,0,1,3.26,1.36,5.16,5.16,0,0,1,2,4.38,5.5,5.5,0,0,1-2.54,5.11,11.08,11.08,0,0,1-5.89,1.54,8.67,8.67,0,0,1-6.13-2.05,7,7,0,0,1-2.17-5.52Z"/><path d="M78.69,24.81a6.06,6.06,0,0,1,2.38,2,7.2,7.2,0,0,1,1.05,2.77,18.78,18.78,0,0,1,.23,3.46H70.94a6.8,6.8,0,0,0,1.12,3.84,3.72,3.72,0,0,0,3.24,1.45A4.19,4.19,0,0,0,78.57,37a4.79,4.79,0,0,0,1-1.84h2.59a5.57,5.57,0,0,1-.68,1.92,7.16,7.16,0,0,1-1.29,1.74,6.09,6.09,0,0,1-3,1.58,8.75,8.75,0,0,1-2.14.24,6.56,6.56,0,0,1-4.94-2.13,8.35,8.35,0,0,1-2-6,9,9,0,0,1,2-6.14A6.71,6.71,0,0,1,75.48,24,7.07,7.07,0,0,1,78.69,24.81Zm1,6.16a6.94,6.94,0,0,0-.74-2.74,3.79,3.79,0,0,0-3.59-1.9,4,4,0,0,0-3,1.31A5,5,0,0,0,71,31Z"/><path d="M94,24.38h2.61v2.23a8.89,8.89,0,0,1,1.7-1.69,5.16,5.16,0,0,1,3-.89,4.12,4.12,0,0,1,4.19,2.48,5.61,5.61,0,0,1,2.06-1.87,5.71,5.71,0,0,1,2.67-.61c2.11,0,3.54.76,4.31,2.28a7.54,7.54,0,0,1,.61,3.32V40.07h-2.74V29.17a2.54,2.54,0,0,0-.78-2.15,3.1,3.1,0,0,0-1.91-.59,3.82,3.82,0,0,0-2.68,1,4.6,4.6,0,0,0-1.12,3.47v9.13h-2.68V29.83a5.26,5.26,0,0,0-.38-2.33,2.33,2.33,0,0,0-2.24-1.1,3.88,3.88,0,0,0-2.72,1.16c-.81.77-1.22,2.17-1.22,4.19v8.32H94Z"/><path d="M128.7,24.81a6.06,6.06,0,0,1,2.38,2,7,7,0,0,1,1,2.77,17.73,17.73,0,0,1,.24,3.46H121a6.8,6.8,0,0,0,1.12,3.84,3.72,3.72,0,0,0,3.24,1.45A4.19,4.19,0,0,0,128.58,37a4.79,4.79,0,0,0,1-1.84h2.59a5.57,5.57,0,0,1-.68,1.92,7.16,7.16,0,0,1-1.29,1.74,6.09,6.09,0,0,1-2.95,1.58,8.81,8.81,0,0,1-2.14.24,6.56,6.56,0,0,1-4.94-2.13,8.35,8.35,0,0,1-2-6,9,9,0,0,1,2-6.14A6.71,6.71,0,0,1,125.49,24,7.07,7.07,0,0,1,128.7,24.81Zm1,6.16a7.11,7.11,0,0,0-.74-2.74,3.79,3.79,0,0,0-3.59-1.9,4,4,0,0,0-3,1.31A5,5,0,0,0,121,31Z"/><path d="M135.77,24.38h2.51v2.71a5.69,5.69,0,0,1,1.51-1.92A3.89,3.89,0,0,1,142.55,24h.25l.6.06v2.79l-.43-.06-.43,0a3.77,3.77,0,0,0-3.06,1.28,4.46,4.46,0,0,0-1.07,3v9h-2.64Z"/><path d="M155.38,24.81a6,6,0,0,1,2.37,2,7,7,0,0,1,1.05,2.77,17.92,17.92,0,0,1,.23,3.46H147.62a6.8,6.8,0,0,0,1.12,3.84A3.75,3.75,0,0,0,152,38.36,4.16,4.16,0,0,0,155.25,37a4.66,4.66,0,0,0,1-1.84h2.59a5.18,5.18,0,0,1-.68,1.92,6.68,6.68,0,0,1-1.29,1.74,6.05,6.05,0,0,1-3,1.58,8.7,8.7,0,0,1-2.14.24,6.54,6.54,0,0,1-4.93-2.13,8.35,8.35,0,0,1-2-6,9,9,0,0,1,2-6.14A6.72,6.72,0,0,1,152.16,24,7.11,7.11,0,0,1,155.38,24.81Zm.94,6.16a6.77,6.77,0,0,0-.74-2.74,3.77,3.77,0,0,0-3.58-1.9,4,4,0,0,0-3,1.31A5,5,0,0,0,147.68,31Z"/></svg>
